<svg width="110" height="34" viewBox="0 0 110 34" fill="none" xmlns="http://www.w3.org/2000/svg">
<path d="M57.9739 8.54254C57.9739 9.76777 56.9773 10.7548 55.7402 10.7548C54.5032 10.7548 53.5066 9.76777 53.5066 8.54254C53.5066 7.31732 54.4688 6.33033 55.7402 6.33033C57.0117 6.36436 57.9739 7.35135 57.9739 8.54254ZM48.7645 13.001V13.5455C48.7645 13.5455 47.6992 12.1842 45.4312 12.1842C41.6856 12.1842 38.7647 15.009 38.7647 18.9229C38.7647 22.8028 41.6513 25.6617 45.4312 25.6617C47.7336 25.6617 48.7645 24.2663 48.7645 24.2663V24.8448C48.7645 25.1171 48.9707 25.3213 49.2456 25.3213H52.029V12.5245H49.2456C48.9707 12.5245 48.7645 12.7628 48.7645 13.001ZM48.7645 21.2032C48.249 21.952 47.2181 22.5986 45.981 22.5986C43.7818 22.5986 42.098 21.2372 42.098 18.9229C42.098 16.6086 43.7818 15.2472 45.981 15.2472C47.1838 15.2472 48.2834 15.9279 48.7645 16.6426V21.2032ZM54.0908 12.5245H57.3897V25.3213H54.0908V12.5245ZM103.368 12.1842C101.1 12.1842 100.035 13.5455 100.035 13.5455V6.36436H96.7357V25.3213H99.5192C99.7941 25.3213 100 25.0831 100 24.8448V24.2663C100 24.2663 101.066 25.6617 103.334 25.6617C107.079 25.6617 110 22.8028 110 18.9229C110 15.043 107.079 12.1842 103.368 12.1842ZM102.818 22.5646C101.547 22.5646 100.55 21.9179 100.035 21.1692V16.6086C100.55 15.9279 101.65 15.2132 102.818 15.2132C105.017 15.2132 106.701 16.5746 106.701 18.8889C106.701 21.2032 105.017 22.5646 102.818 22.5646ZM95.0176 17.7317V25.3554H91.7187V18.1061C91.7187 15.996 91.0314 15.1451 89.1758 15.1451C88.1793 15.1451 87.1484 15.6557 86.4955 16.4044V25.3213H83.1966V12.5245H85.8082C86.0831 12.5245 86.2893 12.7628 86.2893 13.001V13.5455C87.2514 12.5586 88.5229 12.1842 89.7943 12.1842C91.2376 12.1842 92.4403 12.5926 93.4025 13.4094C94.5708 14.3624 95.0176 15.5876 95.0176 17.7317ZM75.1899 12.1842C72.9219 12.1842 71.8567 13.5455 71.8567 13.5455V6.36436H68.5578V25.3213H71.3412C71.6161 25.3213 71.8223 25.0831 71.8223 24.8448V24.2663C71.8223 24.2663 72.8876 25.6617 75.1555 25.6617C78.9011 25.6617 81.822 22.8028 81.822 18.9229C81.8564 15.043 78.9355 12.1842 75.1899 12.1842ZM74.6401 22.5646C73.3686 22.5646 72.3721 21.9179 71.8567 21.1692V16.6086C72.3721 15.9279 73.4717 15.2132 74.6401 15.2132C76.8393 15.2132 78.5232 16.5746 78.5232 18.8889C78.5232 21.2032 76.8393 22.5646 74.6401 22.5646ZM65.7056 12.1842C66.7022 12.1842 67.2176 12.3544 67.2176 12.3544V15.3834C67.2176 15.3834 64.4685 14.4645 62.7504 16.4044V25.3554H59.4515V12.5245H62.2349C62.5098 12.5245 62.716 12.7628 62.716 13.001V13.5455C63.3345 12.8308 64.6747 12.1842 65.7056 12.1842ZM31.4453 24.1642C31.2735 23.7558 31.1017 23.3133 30.9299 22.9389C30.655 22.3263 30.3801 21.7477 30.1395 21.2032L30.1052 21.1692C27.7341 16.0641 25.1912 10.8909 22.5109 5.78579L22.4078 5.58158C22.1329 5.07107 21.858 4.52653 21.5831 3.98198C21.2394 3.36937 20.8958 2.72272 20.346 2.11011C19.2463 0.748749 17.6656 0 15.9818 0C14.2637 0 12.7173 0.748749 11.5833 2.04204C11.0679 2.65465 10.6899 3.3013 10.3462 3.91391C10.0713 4.45846 9.79642 5.003 9.52151 5.51351L9.41843 5.71772C6.77245 10.8228 4.19519 15.996 1.82412 21.1011L1.78976 21.1692C1.54922 21.7137 1.27431 22.2923 0.999401 22.9049C0.827584 23.2793 0.655768 23.6877 0.483951 24.1301C0.037227 25.3894 -0.100226 26.5806 0.0715903 27.8058C0.449587 30.3584 2.16776 32.5025 4.53883 33.4555C5.43228 33.8298 6.36009 34 7.32226 34C7.59717 34 7.9408 33.966 8.21571 33.9319C9.3497 33.7958 10.5181 33.4214 11.652 32.7748C13.0609 31.992 14.4011 30.8689 15.9131 29.2352C17.4251 30.8689 18.7996 31.992 20.1742 32.7748C21.3082 33.4214 22.4765 33.7958 23.6105 33.9319C23.8854 33.966 24.229 34 24.5039 34C25.4661 34 26.4283 33.8298 27.2874 33.4555C29.6928 32.5025 31.3766 30.3243 31.7546 27.8058C32.0295 26.6146 31.8921 25.4234 31.4453 24.1642ZM15.9475 25.9339C14.0918 23.6196 12.8891 21.4414 12.4768 19.6036C12.3049 18.8208 12.2706 18.1401 12.3737 17.5275C12.4424 16.983 12.6486 16.5065 12.9235 16.0981C13.5764 15.1792 14.676 14.6006 15.9475 14.6006C17.2189 14.6006 18.3529 15.1451 18.9714 16.0981C19.2463 16.5065 19.4525 16.983 19.5213 17.5275C19.6243 18.1401 19.59 18.8549 19.4182 19.6036C19.0058 21.4074 17.8031 23.5856 15.9475 25.9339ZM29.6584 27.5335C29.4179 29.3033 28.2152 30.8348 26.5314 31.5155C25.7067 31.8559 24.8132 31.958 23.9198 31.8559C23.0607 31.7538 22.2016 31.4815 21.3082 30.971C20.0711 30.2903 18.834 29.2352 17.3907 27.6697C19.6587 24.9129 21.0332 22.3944 21.5487 20.1481C21.7892 19.0931 21.8236 18.1401 21.7205 17.2553C21.5831 16.4044 21.2738 15.6216 20.7927 14.9409C19.7274 13.4094 17.9405 12.5245 15.9475 12.5245C13.9544 12.5245 12.1675 13.4434 11.1022 14.9409C10.6211 15.6216 10.3119 16.4044 10.1744 17.2553C10.037 18.1401 10.0713 19.1271 10.3462 20.1481C10.8617 22.3944 12.2706 24.9469 14.5042 27.7037C13.0953 29.2693 11.8239 30.3243 10.5868 31.005C9.69333 31.5155 8.83425 31.7878 7.97516 31.8899C7.04735 31.992 6.15391 31.8559 5.36355 31.5495C3.67974 30.8689 2.47703 29.3373 2.23648 27.5676C2.13339 26.7167 2.20212 25.8659 2.54575 24.9129C2.64884 24.5726 2.82066 24.2322 2.99248 23.8238C3.23302 23.2793 3.50793 22.7007 3.78283 22.1221L3.8172 22.0541C6.18827 16.983 8.73116 11.8098 11.3771 6.77277L11.4802 6.56857C11.7551 6.05806 12.03 5.51351 12.3049 5.003C12.5799 4.45846 12.8891 3.94795 13.2671 3.50551C13.9888 2.68869 14.9509 2.24625 16.0162 2.24625C17.0815 2.24625 18.0436 2.68869 18.7653 3.50551C19.1433 3.94795 19.4525 4.45846 19.7274 5.003C20.0023 5.51351 20.2773 6.05806 20.5522 6.56857L20.6552 6.77277C23.2669 11.8438 25.8097 17.017 28.1808 22.0881V22.1221C28.4557 22.6667 28.6963 23.2793 28.9712 23.8238C29.143 24.2322 29.3148 24.5726 29.4179 24.9129C29.6928 25.7978 29.7959 26.6486 29.6584 27.5335Z" fill="#080808" fill-opacity="0.9"/>
</svg>
