<svg width="1296" height="100" viewBox="0 0 1296 100" fill="none" xmlns="http://www.w3.org/2000/svg">
<g clip-path="url(#clip0_1473_1261)">
<rect width="196" height="100" fill="#080808" fill-opacity="0.9"/>
<mask id="mask0_1473_1261" style="mask-type:alpha" maskUnits="userSpaceOnUse" x="0" y="0" width="196" height="100">
<rect width="196" height="100" fill="#F2F2F2"/>
</mask>
<g mask="url(#mask0_1473_1261)">
<rect width="196" height="100" fill="white"/>
<path d="M114.873 47.4135L107.329 39.7326V39.6794C106.87 39.2368 106.263 38.9957 105.635 39.0068C105.008 39.018 104.409 39.2806 103.965 39.7393C103.521 40.1979 103.267 40.8168 103.256 41.4653C103.245 42.1139 103.479 42.7414 103.907 43.2156L103.959 43.2612L111.392 51.0485H114.909V47.4135H114.873Z" fill="#080808" fill-opacity="0.9"/>
<path d="M116.162 55.9766L123.691 63.6574L123.742 63.7107C124.196 64.1786 124.811 64.4411 125.452 64.4404C126.093 64.4396 126.708 64.1758 127.161 63.7069C127.614 63.2379 127.868 62.6023 127.867 61.9399C127.866 61.2774 127.611 60.6424 127.157 60.1744L127.113 60.1288L119.68 52.3415H116.162V55.9766Z" fill="#080808" fill-opacity="0.9"/>
<path d="M119.658 51.0486L127.091 43.2613L127.142 43.2157C127.571 42.7415 127.804 42.1139 127.793 41.4654C127.782 40.8169 127.528 40.198 127.084 39.7393C126.641 39.2807 126.042 39.0181 125.414 39.0069C124.786 38.9957 124.179 39.2369 123.72 39.6794L123.676 39.7327L116.162 47.4135V51.0486H119.658Z" fill="#080808" fill-opacity="0.9"/>
<path d="M111.356 52.3415L103.931 60.1212L103.879 60.1668C103.425 60.6398 103.172 61.2796 103.175 61.9457C103.176 62.2755 103.24 62.6017 103.364 62.9059C103.487 63.21 103.667 63.486 103.894 63.7182C104.121 63.9504 104.389 64.1342 104.685 64.2591C104.98 64.384 105.296 64.4476 105.615 64.4462C106.26 64.4433 106.877 64.176 107.331 63.703L107.375 63.6498L114.911 55.9766V52.3339H111.386L111.356 52.3415Z" fill="#080808" fill-opacity="0.9"/>
<path d="M48.5198 60.6535L47.6293 47.482C47.5263 45.961 47.4601 44.6834 47.4601 43.3678C47.1804 44.7899 46.9743 45.6492 46.5622 47.1702L42.7868 60.6535H38.7097L35.3096 47.7254C35.0005 46.5162 34.5736 44.7823 34.3455 43.3602C34.3455 44.8203 34.2792 46.2728 34.1762 47.7938L33.352 60.6535H28.583L30.7909 36.0064H36.936L40.0564 48.3489C40.3977 49.6334 40.6729 50.9356 40.8807 52.2502C41.1084 50.8995 41.4032 49.5619 41.7638 48.2425L44.9873 36.0064H51.0957L53.2225 60.6535H48.5198ZM69.406 61.5737C68.3631 61.1543 67.4905 60.3787 66.9333 59.3759C66.6045 59.7231 66.2502 60.0435 65.8735 60.3341C64.8206 61.0341 63.5846 61.3819 62.3336 61.3303C58.4257 61.3303 56.2988 59.2694 56.2988 55.6572C56.2988 51.3985 59.1469 49.4136 64.7401 49.4136H65.7705V48.6531C65.7705 46.6303 65.3878 45.9534 63.7098 45.9534C62.2379 45.9534 60.5158 46.7139 58.6318 48.0143L56.6741 44.6074C57.5752 44.0092 58.5288 43.5 59.5223 43.0864C61.035 42.3896 62.6718 42.027 64.328 42.0218C67.2718 42.0218 69.303 43.1549 69.9874 45.1777C70.2992 46.2332 70.4043 47.3423 70.2965 48.4402L70.1935 54.524C70.1935 56.5089 70.2965 57.3606 71.842 58.5698L69.406 61.5737ZM65.4908 52.7065C62.3041 52.7065 61.2002 53.3149 61.2002 55.4746C61.1707 55.7706 61.2007 56.0696 61.2883 56.353C61.3759 56.6363 61.5191 56.898 61.7092 57.1214C61.8992 57.3449 62.1318 57.5254 62.3925 57.6516C62.6532 57.7779 62.9363 57.8471 63.2241 57.8549C63.6872 57.8318 64.1405 57.7089 64.5549 57.4942C64.9693 57.2794 65.3358 56.9775 65.6306 56.6078L65.6969 52.7065H65.4908ZM80.0994 61.0794C77.7664 61.0794 75.9118 60.0147 75.3672 58.4177C75.0689 57.5191 74.9635 56.5641 75.0581 55.6191V45.7329H73.3066V42.5009H75.0581C75.0211 41.0663 75.0776 39.6308 75.2274 38.2041L79.8933 37.0026C79.7136 38.8295 79.6227 40.6645 79.621 42.5009H83.735L82.5722 45.7633H79.6284V54.8891C79.6284 57.1705 80.0405 57.7941 81.6154 57.7941C82.1778 57.756 82.7325 57.6383 83.2639 57.4443L83.8453 60.2809C82.6602 60.8007 81.3869 61.0721 80.0994 61.0794ZM94.4724 46.6455C94.0655 46.4039 93.6021 46.2829 93.133 46.2956C92.5843 46.3164 92.047 46.4637 91.5605 46.7269C91.0741 46.9901 90.6508 47.3624 90.3217 47.8166V60.6535H85.722V48.5239C85.7879 46.7248 85.5692 44.9267 85.0744 43.2005L89.1883 42.0674C89.6279 42.8571 89.8801 43.7432 89.9243 44.653C90.9178 43.2689 92.3308 42.0674 94.0456 42.0674C94.6396 42.0458 95.2293 42.1792 95.7603 42.4552L94.4724 46.6455ZM99.3076 40.44C98.9355 40.438 98.5675 40.3603 98.2244 40.2113C97.8814 40.0623 97.5701 39.845 97.3084 39.5717C97.0467 39.2984 96.8396 38.9745 96.699 38.6185C96.5584 38.2625 96.487 37.8814 96.4889 37.4969C96.4967 36.7122 96.8043 35.9626 97.3447 35.4113C97.8851 34.86 98.6145 34.5518 99.3738 34.5538C99.7455 34.5548 100.113 34.6319 100.456 34.7808C100.799 34.9296 101.109 35.1471 101.37 35.4208C101.631 35.6945 101.837 36.0189 101.975 36.3753C102.114 36.7316 102.183 37.1129 102.178 37.4969C102.179 37.8856 102.105 38.2706 101.961 38.6297C101.817 38.9887 101.605 39.3145 101.338 39.5883C101.071 39.8621 100.754 40.0784 100.405 40.2246C100.057 40.3708 99.6838 40.444 99.3076 40.44ZM97.0262 60.6535V42.8127L101.626 42.0522V60.6535H97.0262ZM131.689 40.44C131.318 40.438 130.95 40.3602 130.607 40.2111C130.265 40.0621 129.954 39.8446 129.693 39.5712C129.432 39.2978 129.225 38.9739 129.085 38.6179C128.946 38.262 128.875 37.881 128.878 37.4969C128.884 36.7129 129.19 35.9633 129.729 35.4118C130.268 34.8603 130.997 34.5518 131.756 34.5538C132.127 34.5548 132.495 34.6319 132.838 34.7808C133.18 34.9296 133.491 35.1471 133.752 35.4208C134.013 35.6945 134.218 36.0189 134.357 36.3753C134.496 36.7316 134.564 37.1129 134.56 37.4969C134.561 37.8856 134.487 38.2706 134.343 38.6297C134.198 38.9887 133.987 39.3145 133.72 39.5883C133.453 39.8621 133.136 40.0784 132.787 40.2246C132.439 40.3708 132.065 40.444 131.689 40.44ZM129.408 60.6535V42.8127L134 42.0522V60.6535H129.408ZM149.499 61.5737C148.456 61.1543 147.584 60.3787 147.026 59.3759C146.699 59.7249 146.345 60.0454 145.967 60.3341C144.914 61.0341 143.678 61.3819 142.427 61.3303C138.519 61.3303 136.392 59.2694 136.392 55.6572C136.392 51.3985 139.24 49.4136 144.833 49.4136H145.864V48.6531C145.864 46.6303 145.481 45.9534 143.803 45.9534C142.331 45.9534 140.609 46.7139 138.725 48.0143L136.767 44.6606C137.668 44.0624 138.622 43.5532 139.615 43.1397C141.128 42.4429 142.765 42.0802 144.421 42.075C147.365 42.075 149.396 43.2081 150.081 45.231C150.392 46.2864 150.498 47.3955 150.39 48.4934L150.287 54.5773C150.287 56.5621 150.39 57.4139 151.935 58.623L149.499 61.5737ZM145.599 52.7065C142.412 52.7065 141.316 53.3149 141.316 55.4746C141.285 55.7708 141.314 56.0702 141.401 56.3541C141.488 56.638 141.632 56.9001 141.822 57.1238C142.012 57.3476 142.245 57.5281 142.506 57.6539C142.768 57.7798 143.051 57.8482 143.339 57.8549C143.799 57.8287 144.248 57.7043 144.658 57.4897C145.069 57.275 145.431 56.9747 145.724 56.6078L145.79 52.7065H145.599ZM163.468 60.6535V48.8433C163.468 46.79 163.122 46.1816 161.922 46.1816C160.708 46.3345 159.581 46.9114 158.728 47.8166V60.6535H154.128V47.482C154.151 46.0369 153.942 44.598 153.51 43.2233L157.595 42.0218C158.001 42.7104 158.227 43.4968 158.25 44.3032C158.898 43.8134 159.574 43.3639 160.274 42.9571C161.257 42.4611 162.336 42.2011 163.431 42.1967C165.388 42.1967 167.111 43.2537 167.655 44.8203C167.915 45.6548 168.029 46.5302 167.994 47.4059V60.6535H163.468Z" fill="#080808" fill-opacity="0.9"/>
</g>
</g>
<g clip-path="url(#clip1_1473_1261)">
<rect width="196" height="100" transform="translate(220)" fill="#080808" fill-opacity="0.9"/>
<mask id="mask1_1473_1261" style="mask-type:alpha" maskUnits="userSpaceOnUse" x="220" y="0" width="196" height="100">
<rect x="220" width="196" height="100" fill="#F2F2F2"/>
</mask>
<g mask="url(#mask1_1473_1261)">
<rect x="220" width="196" height="100" fill="white"/>
<path d="M310.217 51.0628C310.217 56.1775 306.216 59.9464 301.305 59.9464C296.395 59.9464 292.394 56.1775 292.394 51.0628C292.394 45.9121 296.395 42.1792 301.305 42.1792C306.216 42.1792 310.217 45.9121 310.217 51.0628ZM306.316 51.0628C306.316 47.8666 303.997 45.6798 301.305 45.6798C298.614 45.6798 296.295 47.8666 296.295 51.0628C296.295 54.2269 298.614 56.4458 301.305 56.4458C303.997 56.4458 306.316 54.2229 306.316 51.0628Z" fill="#080808" fill-opacity="0.9"/>
<path d="M329.442 51.0627C329.442 56.1774 325.441 59.9463 320.531 59.9463C315.62 59.9463 311.619 56.1774 311.619 51.0627C311.619 45.916 315.62 42.1791 320.531 42.1791C325.441 42.1791 329.442 45.912 329.442 51.0627ZM325.541 51.0627C325.541 47.8665 323.222 45.6796 320.531 45.6796C317.839 45.6796 315.52 47.8665 315.52 51.0627C315.52 54.2268 317.839 56.4457 320.531 56.4457C323.222 56.4457 325.541 54.2228 325.541 51.0627Z" fill="#080808" fill-opacity="0.9"/>
<path d="M347.866 42.7158V58.6646C347.866 65.2252 343.997 67.9047 339.423 67.9047C335.118 67.9047 332.526 65.0249 331.549 62.6698L334.946 61.256C335.55 62.7019 337.032 64.4081 339.419 64.4081C342.347 64.4081 344.162 62.6017 344.162 59.2013V57.9236H344.025C343.152 59.001 341.47 59.9423 339.347 59.9423C334.905 59.9423 330.836 56.0732 330.836 51.0947C330.836 46.0802 334.905 42.1791 339.347 42.1791C341.466 42.1791 343.148 43.1203 344.025 44.1657H344.162V42.7198H347.866V42.7158ZM344.438 51.0947C344.438 47.9666 342.351 45.6796 339.696 45.6796C337.004 45.6796 334.749 47.9666 334.749 51.0947C334.749 54.1908 337.004 56.4457 339.696 56.4457C342.351 56.4457 344.438 54.1908 344.438 51.0947Z" fill="#080808" fill-opacity="0.9"/>
<path d="M353.975 33.3679V59.4019H350.17V33.3679H353.975Z" fill="#080808" fill-opacity="0.9"/>
<path d="M368.803 53.9871L371.831 56.0058C370.854 57.4517 368.499 59.9429 364.43 59.9429C359.383 59.9429 355.614 56.0418 355.614 51.0593C355.614 45.7764 359.415 42.1757 363.993 42.1757C368.603 42.1757 370.858 45.8445 371.595 47.8271L372 48.8364L360.124 53.7548C361.033 55.5372 362.447 56.4464 364.43 56.4464C366.416 56.4464 367.794 55.4691 368.803 53.9871ZM359.483 50.791L367.422 47.4947C366.985 46.3852 365.671 45.6122 364.125 45.6122C362.143 45.6122 359.383 47.3625 359.483 50.791Z" fill="#080808" fill-opacity="0.9"/>
<path d="M277.991 48.7519V44.983H290.692C290.816 45.6398 290.88 46.4169 290.88 47.258C290.88 50.0856 290.107 53.5822 287.616 56.0735C285.193 58.5968 282.097 59.9425 277.995 59.9425C270.393 59.9425 264.001 53.7504 264.001 46.1485C264.001 38.5466 270.393 32.3545 277.995 32.3545C282.201 32.3545 285.197 34.0046 287.448 36.1555L284.788 38.8149C283.174 37.301 280.987 36.1234 277.991 36.1234C272.44 36.1234 268.098 40.5973 268.098 46.1485C268.098 51.6997 272.44 56.1736 277.991 56.1736C281.592 56.1736 283.643 54.7277 284.956 53.414C286.022 52.3486 286.723 50.8266 286.999 48.7479L277.991 48.7519Z" fill="#080808" fill-opacity="0.9"/>
</g>
</g>
<g clip-path="url(#clip2_1473_1261)">
<rect width="196" height="100" transform="translate(440)" fill="#080808" fill-opacity="0.9"/>
<mask id="mask2_1473_1261" style="mask-type:alpha" maskUnits="userSpaceOnUse" x="440" y="0" width="196" height="100">
<rect x="440" width="196" height="100" fill="#F2F2F2"/>
</mask>
<g mask="url(#mask2_1473_1261)">
<rect x="440" width="196" height="100" fill="white"/>
<path d="M479.877 43.8144L479.146 33.3875H489.573V43.3289L479.877 43.8144Z" fill="#080808" fill-opacity="0.9"/>
<path opacity="0.5" d="M492.242 33.873L502.928 34.6036V43.3336H491.733L492.242 33.873Z" fill="#080808" fill-opacity="0.9"/>
<path opacity="0.5" d="M479.877 46.3714V54.1304L490.299 55.3419V46.3714H479.877Z" fill="#080808" fill-opacity="0.9"/>
<path d="M492.689 46.6257L492.722 54.7962L501.873 54.4726L502.27 46.3206L492.689 46.6257Z" fill="#080808" fill-opacity="0.9"/>
<path d="M489.574 57.7602V66H480.113L480.844 57.27L489.574 57.7602Z" fill="#080808" fill-opacity="0.9"/>
<path d="M518.459 61.6352C518.514 62.1623 518.242 62.6663 517.77 62.9068C517.52 63.0085 517.257 63.064 516.984 63.064C516.734 63.0547 516.494 62.9993 516.263 62.9068C515.795 62.6617 515.523 62.1623 515.574 61.6352V49.0673H513.978C513.373 49.1228 512.841 48.6789 512.785 48.0732C512.776 47.9992 512.781 47.9206 512.79 47.8466C512.716 47.2455 513.141 46.6999 513.742 46.6305C513.821 46.6212 513.9 46.6212 513.978 46.6259H515.592C515.592 44.2445 515.592 43.3984 516.124 42.4597C516.873 41.0494 518.44 40.5176 520.359 40.5176C520.859 40.5176 521.987 40.5176 521.987 41.7384C521.987 42.8342 521.081 42.9313 520.577 42.9591C519.73 43.0238 519.356 43.0516 518.981 43.3845C518.45 43.8099 518.45 44.2307 518.45 46.6444H520.762C521.187 46.6444 521.955 46.7368 521.955 47.8651C522.01 48.4754 521.557 49.0164 520.947 49.0673C520.877 49.0719 520.808 49.0719 520.743 49.0673H518.454L518.459 61.6352ZM535.105 61.7785C535.077 62.1207 535.013 63.0501 533.833 63.0501C533.334 63.0779 532.867 62.8097 532.641 62.3612C532.548 62.1115 532.516 61.982 532.516 60.8584C531.295 62.3843 529.427 63.2443 527.471 63.175C524.211 63.175 522.209 61.1728 522.209 58.195C522.209 54.4681 525.279 53.8716 526.972 53.534L529.635 52.9699C530.698 52.748 531.263 52.6278 531.545 52.5445C532.201 52.3596 532.423 52.1191 532.423 51.3238C532.423 48.6604 529.727 48.6604 529.163 48.6604C526.44 48.6604 525.968 50.006 525.686 50.8568C525.594 51.2822 525.436 51.8602 524.368 51.8602C523.208 51.8602 522.898 51.2036 522.898 50.6395C522.967 49.9875 523.194 49.3679 523.554 48.8222C524.826 46.9126 526.999 46.3484 529.159 46.3484C530.976 46.3484 532.853 46.6906 534.014 48.0454C535.077 49.317 535.077 50.8984 535.077 52.4289L535.105 61.7785ZM528.682 55.4252C528.141 55.527 527.605 55.6657 527.087 55.8506C525.977 56.1003 525.191 57.0945 525.205 58.232C525.205 59.9567 526.551 60.8306 528.118 60.8306C529.459 60.8353 530.731 60.2203 531.563 59.1706C532.377 58.0424 532.409 56.5674 532.442 54.4727C531.762 54.7548 531.05 54.9536 530.324 55.0692L528.682 55.4252ZM548.561 57.8713C548.783 57.2794 549.06 56.6506 549.906 56.6506C550.285 56.6506 551.409 56.8725 551.409 57.9684C551.354 58.6389 551.132 59.2862 550.757 59.8457C550.258 60.7243 548.815 63.1657 544.367 63.1657C538.661 63.1657 536.816 58.625 536.816 54.69C536.797 53.4554 536.987 52.2255 537.38 51.0556C539.077 46.2929 543.363 46.2929 544.524 46.2929C548.158 46.2929 549.61 47.8281 550.457 49.206C551.113 50.2418 551.113 50.6163 551.113 50.8383C551.085 51.6244 550.429 52.244 549.638 52.2208C549.62 52.2208 549.597 52.2208 549.578 52.2162C548.699 52.2162 548.417 51.6244 548.075 50.8984C547.437 49.465 545.967 48.5818 544.399 48.6928C541.079 48.6928 539.794 51.5457 539.794 54.5837C539.794 57.2794 540.608 60.7243 544.399 60.7243C547.271 60.7243 548.089 58.8747 548.561 57.8713ZM554.923 49.0673H553.263C552.653 49.1136 552.117 48.6558 552.07 48.0454C552.066 47.9807 552.066 47.9113 552.075 47.8466C552.001 47.2455 552.426 46.6999 553.027 46.6305C553.106 46.6212 553.185 46.6212 553.263 46.6259H554.96V42.9591C554.96 42.5337 555.085 41.6135 556.371 41.6135C557.656 41.6135 557.813 42.5198 557.813 42.9591V46.6259H559.755C560.352 46.5704 560.879 47.005 560.939 47.6015C560.948 47.6801 560.944 47.7634 560.934 47.8466C560.995 48.457 560.546 49.0026 559.931 49.0627C559.871 49.0673 559.811 49.0673 559.755 49.0673H557.813V57.0297C557.813 58.9117 557.841 59.1475 557.938 59.5036C558.16 60.4098 558.752 60.5671 559.598 60.6318C560.352 60.6642 561.133 60.7243 561.133 61.8248C561.133 62.9207 560.13 63.0547 559.284 63.0547C554.928 63.0547 554.928 60.7012 554.928 58.2643V49.0673H554.923ZM576.67 61.6629C576.707 62.1716 576.434 62.6525 575.981 62.8837C575.518 63.0732 575 63.0732 574.538 62.8837C573.881 62.5415 573.881 62.0375 573.881 60.7659C572.536 62.5507 571.186 63.1472 568.897 63.1472C568.148 63.1472 566.136 63.0825 564.731 61.552C563.385 60.0492 563.385 58.0424 563.385 56.5674V47.879C563.417 47.0744 564.097 46.4502 564.902 46.4872C565.646 46.5195 566.247 47.1068 566.294 47.8512V55.6472C566.294 57.765 566.386 58.6111 566.793 59.3741C567.514 60.6919 568.989 60.6919 569.359 60.6919C571.394 60.7659 573.183 59.3648 573.595 57.3719C573.752 56.5026 573.807 55.6194 573.752 54.7409V47.879C573.794 47.0744 574.483 46.4594 575.287 46.501C576.032 46.5426 576.623 47.1345 576.665 47.879L576.67 61.6629ZM591.494 61.7785C591.466 62.1207 591.402 63.0501 590.222 63.0501C589.723 63.0779 589.256 62.8097 589.029 62.3612C588.937 62.1115 588.905 61.982 588.905 60.8584C587.684 62.3843 585.811 63.2443 583.86 63.175C580.6 63.175 578.598 61.1728 578.598 58.195C578.598 54.4681 581.668 53.8716 583.361 53.534L586.024 52.9699C587.087 52.748 587.652 52.6278 587.934 52.5445C588.59 52.3596 588.812 52.1191 588.812 51.3238C588.812 48.6604 586.116 48.6604 585.552 48.6604C582.829 48.6604 582.357 50.006 582.075 50.8568C581.983 51.2822 581.825 51.8602 580.757 51.8602C579.597 51.8602 579.287 51.2036 579.287 50.6395C579.356 49.9875 579.583 49.3679 579.943 48.8222C581.215 46.9126 583.388 46.3484 585.548 46.3484C587.365 46.3484 589.247 46.6906 590.403 48.0454C591.466 49.317 591.466 50.8984 591.466 52.4289L591.494 61.7785ZM585.085 55.4252C584.544 55.527 584.008 55.6657 583.49 55.8506C582.38 56.1003 581.594 57.0945 581.608 58.232C581.608 59.9567 582.954 60.8306 584.521 60.8306C585.862 60.8353 587.134 60.2203 587.966 59.1706C588.78 58.0424 588.812 56.5674 588.845 54.4727C588.165 54.7548 587.453 54.9536 586.727 55.0692L585.085 55.4252ZM597.514 61.6352C597.514 62.4305 596.867 63.0732 596.072 63.0732C595.276 63.0732 594.634 62.4305 594.634 61.6352V41.9279C594.597 41.202 595.152 40.587 595.878 40.5454C595.942 40.5408 596.012 40.5454 596.076 40.55C596.788 40.4668 597.431 40.98 597.51 41.6921C597.519 41.7707 597.519 41.8493 597.514 41.9279V61.6352Z" fill="#080808" fill-opacity="0.9"/>
</g>
</g>
<g clip-path="url(#clip3_1473_1261)">
<rect width="196" height="100" transform="translate(660)" fill="#080808" fill-opacity="0.9"/>
<mask id="mask3_1473_1261" style="mask-type:alpha" maskUnits="userSpaceOnUse" x="660" y="0" width="196" height="100">
<rect x="660" width="196" height="100" fill="#F2F2F2"/>
</mask>
<g mask="url(#mask3_1473_1261)">
<rect x="660" width="196" height="100" fill="white"/>
<path d="M760.974 41.5425C760.974 42.7678 759.977 43.7548 758.74 43.7548C757.503 43.7548 756.507 42.7678 756.507 41.5425C756.507 40.3173 757.469 39.3303 758.74 39.3303C760.012 39.3644 760.974 40.3514 760.974 41.5425ZM751.764 46.001V46.5455C751.764 46.5455 750.699 45.1842 748.431 45.1842C744.686 45.1842 741.765 48.009 741.765 51.9229C741.765 55.8028 744.651 58.6617 748.431 58.6617C750.734 58.6617 751.764 57.2663 751.764 57.2663V57.8448C751.764 58.1171 751.971 58.3213 752.246 58.3213H755.029V45.5245H752.246C751.971 45.5245 751.764 45.7628 751.764 46.001ZM751.764 54.2032C751.249 54.952 750.218 55.5986 748.981 55.5986C746.782 55.5986 745.098 54.2372 745.098 51.9229C745.098 49.6086 746.782 48.2472 748.981 48.2472C750.184 48.2472 751.283 48.9279 751.764 49.6426V54.2032ZM757.091 45.5245H760.39V58.3213H757.091V45.5245ZM806.368 45.1842C804.1 45.1842 803.035 46.5455 803.035 46.5455V39.3644H799.736V58.3213H802.519C802.794 58.3213 803 58.0831 803 57.8448V57.2663C803 57.2663 804.066 58.6617 806.334 58.6617C810.079 58.6617 813 55.8028 813 51.9229C813 48.043 810.079 45.1842 806.368 45.1842ZM805.818 55.5646C804.547 55.5646 803.55 54.9179 803.035 54.1692V49.6086C803.55 48.9279 804.65 48.2132 805.818 48.2132C808.017 48.2132 809.701 49.5746 809.701 51.8889C809.701 54.2032 808.017 55.5646 805.818 55.5646ZM798.018 50.7317V58.3554H794.719V51.1061C794.719 48.996 794.031 48.1451 792.176 48.1451C791.179 48.1451 790.148 48.6557 789.495 49.4044V58.3213H786.197V45.5245H788.808C789.083 45.5245 789.289 45.7628 789.289 46.001V46.5455C790.251 45.5586 791.523 45.1842 792.794 45.1842C794.238 45.1842 795.44 45.5926 796.402 46.4094C797.571 47.3624 798.018 48.5876 798.018 50.7317ZM778.19 45.1842C775.922 45.1842 774.857 46.5455 774.857 46.5455V39.3644H771.558V58.3213H774.341C774.616 58.3213 774.822 58.0831 774.822 57.8448V57.2663C774.822 57.2663 775.888 58.6617 778.156 58.6617C781.901 58.6617 784.822 55.8028 784.822 51.9229C784.856 48.043 781.936 45.1842 778.19 45.1842ZM777.64 55.5646C776.369 55.5646 775.372 54.9179 774.857 54.1692V49.6086C775.372 48.9279 776.472 48.2132 777.64 48.2132C779.839 48.2132 781.523 49.5746 781.523 51.8889C781.523 54.2032 779.839 55.5646 777.64 55.5646ZM768.706 45.1842C769.702 45.1842 770.218 45.3544 770.218 45.3544V48.3834C770.218 48.3834 767.469 47.4645 765.75 49.4044V58.3554H762.451V45.5245H765.235C765.51 45.5245 765.716 45.7628 765.716 46.001V46.5455C766.335 45.8308 767.675 45.1842 768.706 45.1842ZM734.445 57.1642C734.274 56.7558 734.102 56.3133 733.93 55.9389C733.655 55.3263 733.38 54.7477 733.14 54.2032L733.105 54.1692C730.734 49.0641 728.191 43.8909 725.511 38.7858L725.408 38.5816C725.133 38.0711 724.858 37.5265 724.583 36.982C724.239 36.3694 723.896 35.7227 723.346 35.1101C722.246 33.7487 720.666 33 718.982 33C717.264 33 715.717 33.7487 714.583 35.042C714.068 35.6547 713.69 36.3013 713.346 36.9139C713.071 37.4585 712.796 38.003 712.522 38.5135L712.418 38.7177C709.772 43.8228 707.195 48.996 704.824 54.1011L704.79 54.1692C704.549 54.7137 704.274 55.2923 703.999 55.9049C703.828 56.2793 703.656 56.6877 703.484 57.1301C703.037 58.3894 702.9 59.5806 703.072 60.8058C703.45 63.3584 705.168 65.5025 707.539 66.4555C708.432 66.8298 709.36 67 710.322 67C710.597 67 710.941 66.966 711.216 66.9319C712.35 66.7958 713.518 66.4214 714.652 65.7748C716.061 64.992 717.401 63.8689 718.913 62.2352C720.425 63.8689 721.8 64.992 723.174 65.7748C724.308 66.4214 725.477 66.7958 726.61 66.9319C726.885 66.966 727.229 67 727.504 67C728.466 67 729.428 66.8298 730.287 66.4555C732.693 65.5025 734.377 63.3243 734.755 60.8058C735.03 59.6146 734.892 58.4234 734.445 57.1642ZM718.947 58.9339C717.092 56.6196 715.889 54.4414 715.477 52.6036C715.305 51.8208 715.271 51.1401 715.374 50.5275C715.442 49.983 715.649 49.5065 715.923 49.0981C716.576 48.1792 717.676 47.6006 718.947 47.6006C720.219 47.6006 721.353 48.1451 721.971 49.0981C722.246 49.5065 722.453 49.983 722.521 50.5275C722.624 51.1401 722.59 51.8549 722.418 52.6036C722.006 54.4074 720.803 56.5856 718.947 58.9339ZM732.658 60.5335C732.418 62.3033 731.215 63.8348 729.531 64.5155C728.707 64.8559 727.813 64.958 726.92 64.8559C726.061 64.7538 725.202 64.4815 724.308 63.971C723.071 63.2903 721.834 62.2352 720.391 60.6697C722.659 57.9129 724.033 55.3944 724.549 53.1481C724.789 52.0931 724.824 51.1401 724.721 50.2553C724.583 49.4044 724.274 48.6216 723.793 47.9409C722.727 46.4094 720.941 45.5245 718.947 45.5245C716.954 45.5245 715.167 46.4434 714.102 47.9409C713.621 48.6216 713.312 49.4044 713.174 50.2553C713.037 51.1401 713.071 52.1271 713.346 53.1481C713.862 55.3944 715.271 57.9469 717.504 60.7037C716.095 62.2693 714.824 63.3243 713.587 64.005C712.693 64.5155 711.834 64.7878 710.975 64.8899C710.047 64.992 709.154 64.8559 708.364 64.5495C706.68 63.8689 705.477 62.3373 705.236 60.5676C705.133 59.7167 705.202 58.8659 705.546 57.9129C705.649 57.5726 705.821 57.2322 705.992 56.8238C706.233 56.2793 706.508 55.7007 706.783 55.1221L706.817 55.0541C709.188 49.983 711.731 44.8098 714.377 39.7728L714.48 39.5686C714.755 39.0581 715.03 38.5135 715.305 38.003C715.58 37.4585 715.889 36.9479 716.267 36.5055C716.989 35.6887 717.951 35.2462 719.016 35.2462C720.081 35.2462 721.044 35.6887 721.765 36.5055C722.143 36.9479 722.453 37.4585 722.727 38.003C723.002 38.5135 723.277 39.0581 723.552 39.5686L723.655 39.7728C726.267 44.8438 728.81 50.017 731.181 55.0881V55.1221C731.456 55.6667 731.696 56.2793 731.971 56.8238C732.143 57.2322 732.315 57.5726 732.418 57.9129C732.693 58.7978 732.796 59.6486 732.658 60.5335Z" fill="#080808" fill-opacity="0.9"/>
</g>
</g>
<g clip-path="url(#clip4_1473_1261)">
<rect width="196" height="100" transform="translate(880)" fill="#080808" fill-opacity="0.9"/>
<mask id="mask4_1473_1261" style="mask-type:alpha" maskUnits="userSpaceOnUse" x="880" y="0" width="196" height="100">
<rect x="880" width="196" height="100" fill="#F2F2F2"/>
</mask>
<g mask="url(#mask4_1473_1261)">
<rect x="880" width="196" height="100" fill="white"/>
<path d="M1026.6 37.7434C1026.13 37.7434 1025.75 38.1223 1025.75 38.5896V44.524H1041.43L1034.29 37.744L1026.6 37.7434Z" fill="#080808" fill-opacity="0.9"/>
<path d="M1042 46.3188C1042 45.8504 1041.63 45.4731 1041.15 45.4731H1035.22V61.1497L1042 54.0077L1042 46.3188Z" fill="#080808" fill-opacity="0.9"/>
<path d="M1033.42 61.7183C1033.89 61.7183 1034.27 61.3388 1034.27 60.8705V54.9382H1018.59L1025.73 61.7172L1033.42 61.7183Z" fill="#080808" fill-opacity="0.9"/>
<path d="M1018.02 53.1429C1018.02 53.6107 1018.4 53.9918 1018.87 53.9918H1024.8V38.3141L1018.02 45.454L1018.02 53.1429Z" fill="#080808" fill-opacity="0.9"/>
<path d="M946.166 40.605V47.8447H936.08V40.605L932.406 40.6017V58.856H936.08V51.0139H946.166V58.856H949.845V40.605H946.166Z" fill="#080808" fill-opacity="0.9"/>
<path d="M995.037 40.6052V58.8518H1011.15L1009.11 55.6395H998.721V51.0141H1008.78V47.9201H998.721V43.7423H1009.1L1011.09 40.6052H995.037Z" fill="#080808" fill-opacity="0.9"/>
<path d="M918.751 40.6009C914.93 40.6009 913 42.924 913 46.3042V53.1181C913 57.0298 915.487 58.8563 918.732 58.8563L930.258 58.8552L928.121 55.5186H919.444C917.601 55.5186 916.798 54.8523 916.798 52.7893V46.6073C916.798 44.613 917.474 43.835 919.493 43.835H928.212L930.263 40.6009H918.751Z" fill="#080808" fill-opacity="0.9"/>
<path d="M978.914 40.5966C976.707 40.5966 974.445 41.9231 974.445 45.3349V46.2116C974.445 49.7685 976.621 51.1255 978.799 51.1347H986.442C987.236 51.1347 987.881 51.2667 987.881 52.6084L987.88 54.1584C987.859 55.3638 987.258 55.6397 986.415 55.6397H976.36L974.3 58.852H986.651C989.63 58.852 991.652 57.3701 991.652 53.9474V52.6896C991.652 49.3803 989.773 47.8167 986.86 47.8167H979.562C978.753 47.8167 978.189 47.5958 978.189 46.3975V45.1354C978.189 44.1148 978.576 43.7424 979.518 43.7424L989.094 43.7386L991.096 40.5923L978.914 40.5966Z" fill="#080808" fill-opacity="0.9"/>
<path d="M960.518 40.6055L951.863 58.8554H955.954L957.64 55.0865H967.045L968.725 58.8554H972.834L964.159 40.6055H960.518ZM962.333 44.3946L965.659 51.98H959.029L962.333 44.3946Z" fill="#080808" fill-opacity="0.9"/>
</g>
</g>
<g clip-path="url(#clip5_1473_1261)">
<rect width="196" height="100" transform="translate(1100)" fill="#080808" fill-opacity="0.9"/>
<mask id="mask5_1473_1261" style="mask-type:alpha" maskUnits="userSpaceOnUse" x="1100" y="0" width="196" height="100">
<rect x="1100" width="196" height="100" fill="#F2F2F2"/>
</mask>
<g mask="url(#mask5_1473_1261)">
<rect x="1100" width="196" height="100" fill="white"/>
<path d="M1149 55.5131V35.4246H1152.62V55.5129L1149 55.5131ZM1161.89 40.9396C1157.24 40.9396 1154.03 44.4183 1154.03 48.3999C1154.03 52.8438 1157.53 55.9049 1161.92 55.9049C1166.09 55.9049 1169.71 52.9 1169.71 48.3904C1169.71 44.5982 1166.71 40.9396 1161.89 40.9396ZM1161.84 44.3438C1164.27 44.3438 1166.06 46.1868 1166.06 48.4127C1166.06 50.7728 1164.09 52.4944 1161.91 52.4944C1159.33 52.4944 1157.71 50.5042 1157.71 48.4191C1157.71 46.1336 1159.54 44.3438 1161.84 44.3438ZM1178.81 40.9396C1174.17 40.9396 1170.95 44.4183 1170.95 48.3999C1170.95 52.8438 1174.45 55.9049 1178.84 55.9049C1183.02 55.9049 1186.63 52.9 1186.63 48.3904C1186.63 45.7348 1185.45 44.5564 1185.45 44.5564L1186.46 44.221V41.357H1181.32C1181.32 41.357 1180.2 40.9396 1178.81 40.9396ZM1178.77 44.3438C1181.19 44.3438 1182.98 46.1868 1182.98 48.4127C1182.98 50.7728 1181.01 52.4944 1178.83 52.4944C1176.25 52.4944 1174.63 50.5042 1174.63 48.4191C1174.63 46.1336 1176.46 44.3438 1178.77 44.3438ZM1182.96 56.4949C1182.96 58.855 1180.99 60.5894 1178.81 60.5894C1176.23 60.5894 1174.6 58.5801 1174.6 56.4949H1170.93C1170.93 60.9388 1174.42 64 1178.82 64C1182.99 64 1186.61 61.0047 1186.61 56.4949H1182.96ZM1188.08 55.5131V41.357H1191.7V55.513L1188.08 55.5131ZM1195.22 55.5131V44.5279H1193.28V41.357H1195.22V37.0101H1198.84V41.357H1200.83V44.5279H1198.84V55.513L1195.22 55.5131Z" fill="#080808" fill-opacity="0.9"/>
<path d="M1189.89 39.6734C1191.21 39.6734 1192.28 38.6272 1192.28 37.3367C1192.28 36.0462 1191.21 35 1189.89 35C1188.56 35 1187.49 36.0462 1187.49 37.3367C1187.49 38.6272 1188.56 39.6734 1189.89 39.6734Z" fill="#080808" fill-opacity="0.9"/>
<path d="M1208.97 40.93C1204.31 40.93 1201.3 44.4105 1201.3 48.5278C1201.3 52.7825 1204.32 55.9145 1209.05 55.9145C1213.46 55.9145 1215.63 53.2296 1215.63 53.2296L1213.21 50.8675C1213.21 50.8675 1211.38 52.7885 1209.09 52.7885C1207.19 52.7885 1205.66 51.7508 1205.13 49.8479H1216.41V48.8761C1216.41 44.999 1214.11 40.93 1208.97 40.93ZM1208.86 44.037C1210.52 44.037 1212.23 44.9065 1212.61 46.984H1205.03C1205.33 45.5237 1206.64 44.037 1208.86 44.037ZM1225.46 55.9164C1220.79 55.9164 1217.6 52.4443 1217.6 48.3506C1217.6 44.1259 1221.2 40.9274 1225.45 40.9274C1229.55 40.9274 1231.65 43.7525 1231.65 43.7525L1229.13 46.2029C1229.13 46.2029 1227.67 44.3606 1225.43 44.3606C1222.95 44.3606 1221.26 46.2083 1221.26 48.4048C1221.26 50.724 1223.06 52.5034 1225.4 52.5034C1227.67 52.5034 1229.13 50.6639 1229.13 50.6639L1231.68 53.1131C1231.68 53.1131 1229.59 55.9164 1225.46 55.9164ZM1232.99 55.5232V35.3735H1236.61V42.7766C1236.61 42.7766 1238 40.9274 1241.01 40.9274C1244.8 40.9274 1247 43.6742 1247 47.1872V55.5232H1243.38V47.7205C1243.38 45.3604 1241.87 44.3812 1240.2 44.3812C1238.3 44.3812 1236.61 45.4367 1236.61 47.9031V55.5232H1232.99Z" fill="#080808" fill-opacity="0.9"/>
</g>
</g>
<defs>
<clipPath id="clip0_1473_1261">
<rect width="196" height="100" fill="white"/>
</clipPath>
<clipPath id="clip1_1473_1261">
<rect width="196" height="100" fill="white" transform="translate(220)"/>
</clipPath>
<clipPath id="clip2_1473_1261">
<rect width="196" height="100" fill="white" transform="translate(440)"/>
</clipPath>
<clipPath id="clip3_1473_1261">
<rect width="196" height="100" fill="white" transform="translate(660)"/>
</clipPath>
<clipPath id="clip4_1473_1261">
<rect width="196" height="100" fill="white" transform="translate(880)"/>
</clipPath>
<clipPath id="clip5_1473_1261">
<rect width="196" height="100" fill="white" transform="translate(1100)"/>
</clipPath>
</defs>
</svg>
