<svg width="129" height="25" viewBox="0 0 129 25" fill="none" xmlns="http://www.w3.org/2000/svg">
<path d="M113.597 0.743408C113.129 0.743408 112.75 1.12232 112.75 1.58955V7.52403H128.426L121.287 0.743956L113.597 0.743408Z" fill="#080808" fill-opacity="0.9"/>
<path d="M129.001 9.31875C129.001 8.85042 128.625 8.47314 128.155 8.47314H122.222V24.1497L128.998 17.0077L129.001 9.31875Z" fill="#080808" fill-opacity="0.9"/>
<path d="M120.423 24.7183C120.889 24.7183 121.268 24.3388 121.268 23.8705V17.9382H105.592L112.732 24.7172L120.423 24.7183Z" fill="#080808" fill-opacity="0.9"/>
<path d="M105.019 16.1429C105.019 16.6107 105.397 16.9918 105.866 16.9918H111.798V1.31409L105.02 8.45398L105.019 16.1429Z" fill="#080808" fill-opacity="0.9"/>
<path d="M33.1658 3.60501V10.8447H23.0797V3.60501L19.4062 3.60175V21.856H23.0797V14.0139H33.1658V21.856H36.8454V3.60501H33.1658Z" fill="#080808" fill-opacity="0.9"/>
<path d="M82.0371 3.60519V21.8518H98.1537L96.1124 18.6395H85.721V14.0141H95.7832V10.9201H85.721V6.74225H96.095L98.0948 3.60519H82.0371Z" fill="#080808" fill-opacity="0.9"/>
<path d="M5.75129 3.60089C1.93002 3.60089 0 5.92397 0 9.3042V16.1181C0 20.0298 2.48719 21.8563 5.73221 21.8563L17.2577 21.8552L15.121 18.5186H6.44424C4.60092 18.5186 3.79785 17.8523 3.79785 15.7893V9.60733C3.79785 7.613 4.47389 6.835 6.4933 6.835H15.2115L17.2631 3.60089H5.75129Z" fill="#080808" fill-opacity="0.9"/>
<path d="M65.9138 3.59661C63.7069 3.59661 61.4448 4.92308 61.4448 8.33492V9.21159C61.4448 12.7685 63.6213 14.1255 65.7988 14.1347H73.4419C74.2357 14.1347 74.8807 14.2667 74.8807 15.6084L74.8796 17.1584C74.8594 18.3638 74.258 18.6397 73.4146 18.6397H63.3596L61.2998 21.852H73.6512C76.6296 21.852 78.6518 20.3701 78.6518 16.9474V15.6896C78.6518 12.3803 76.773 10.8167 73.86 10.8167H66.562C65.753 10.8167 65.1892 10.5958 65.1892 9.39751V8.13537C65.1892 7.11477 65.5758 6.7424 66.5184 6.7424L76.0943 6.73858L78.0957 3.59225L65.9138 3.59661Z" fill="#080808" fill-opacity="0.9"/>
<path d="M47.5184 3.60553L38.8633 21.8554H42.954L44.6397 18.0865H54.0449L55.7252 21.8554H59.8338L51.1586 3.60553H47.5184ZM49.3333 7.39465L52.659 14.98H46.0289L49.3333 7.39465Z" fill="#080808" fill-opacity="0.9"/>
</svg>
