<svg width="119" height="33" viewBox="0 0 119 33" fill="none" xmlns="http://www.w3.org/2000/svg">
<path d="M0.877067 10.8144L0.146484 0.387451H10.5735V10.3289L0.877067 10.8144Z" fill="#080808" fill-opacity="0.9"/>
<path opacity="0.5" d="M13.242 0.873047L23.928 1.60363V10.3336H12.7334L13.242 0.873047Z" fill="#080808" fill-opacity="0.9"/>
<path opacity="0.5" d="M0.876953 13.3714V21.1304L11.2993 22.3419V13.3714H0.876953Z" fill="#080808" fill-opacity="0.9"/>
<path d="M13.6895 13.6257L13.7218 21.7962L22.8726 21.4726L23.2703 13.3206L13.6895 13.6257Z" fill="#080808" fill-opacity="0.9"/>
<path d="M10.5737 24.7602V33H1.11316L1.84374 24.27L10.5737 24.7602Z" fill="#080808" fill-opacity="0.9"/>
<path d="M39.4589 28.6352C39.5144 29.1623 39.2416 29.6663 38.7699 29.9068C38.5202 30.0085 38.2567 30.064 37.9839 30.064C37.7342 30.0547 37.4937 29.9993 37.2625 29.9068C36.7955 29.6617 36.5227 29.1623 36.5736 28.6352V16.0673H34.9783C34.3726 16.1228 33.8408 15.6789 33.7853 15.0732C33.7761 14.9992 33.7807 14.9206 33.7899 14.8466C33.716 14.2455 34.1414 13.6999 34.7425 13.6305C34.8211 13.6212 34.8997 13.6212 34.9783 13.6259H36.592C36.592 11.2445 36.592 10.3984 37.1238 9.4597C37.8729 8.04939 39.4404 7.51764 41.3593 7.51764C41.8587 7.51764 42.987 7.51764 42.987 8.73836C42.987 9.83424 42.0807 9.93134 41.5767 9.95908C40.7305 10.0238 40.3559 10.0516 39.9814 10.3845C39.4496 10.8099 39.4496 11.2307 39.4496 13.6444H41.7616C42.187 13.6444 42.9546 13.7368 42.9546 14.8651C43.0101 15.4754 42.5569 16.0164 41.9466 16.0673C41.8772 16.0719 41.8079 16.0719 41.7431 16.0673H39.4543L39.4589 28.6352ZM56.1051 28.7785C56.0773 29.1207 56.0126 30.0501 54.8335 30.0501C54.3341 30.0779 53.8671 29.8097 53.6405 29.3612C53.548 29.1115 53.5157 28.982 53.5157 27.8584C52.295 29.3843 50.4269 30.2443 48.471 30.175C45.2111 30.175 43.2089 28.1728 43.2089 25.195C43.2089 21.4681 46.2792 20.8716 47.9716 20.534L50.635 19.9699C51.6985 19.748 52.2626 19.6278 52.5446 19.5445C53.2012 19.3596 53.4232 19.1191 53.4232 18.3238C53.4232 15.6604 50.7274 15.6604 50.1633 15.6604C47.4398 15.6604 46.9682 17.006 46.6861 17.8568C46.5936 18.2822 46.4364 18.8602 45.3683 18.8602C44.2077 18.8602 43.8979 18.2036 43.8979 17.6395C43.9672 16.9875 44.1938 16.3679 44.5545 15.8222C45.8261 13.9126 47.9993 13.3484 50.1587 13.3484C51.9759 13.3484 53.8532 13.6906 55.0138 15.0454C56.0773 16.317 56.0773 17.8984 56.0773 19.4289L56.1051 28.7785ZM49.6824 22.4252C49.1414 22.527 48.605 22.6657 48.0872 22.8506C46.9774 23.1003 46.1914 24.0945 46.2052 25.232C46.2052 26.9567 47.5508 27.8306 49.1183 27.8306C50.4593 27.8353 51.7308 27.2203 52.5631 26.1706C53.377 25.0424 53.4093 23.5674 53.4417 21.4727C52.762 21.7548 52.0499 21.9536 51.3239 22.0692L49.6824 22.4252ZM69.5608 24.8713C69.7827 24.2794 70.0601 23.6506 70.9063 23.6506C71.2855 23.6506 72.4091 23.8725 72.4091 24.9684C72.3536 25.6389 72.1317 26.2862 71.7571 26.8457C71.2577 27.7243 69.8151 30.1657 65.3668 30.1657C59.6609 30.1657 57.8159 25.625 57.8159 21.69C57.7974 20.4554 57.987 19.2255 58.3801 18.0556C60.0771 13.2929 64.3634 13.2929 65.5241 13.2929C69.1585 13.2929 70.6104 14.8281 71.4566 16.206C72.1132 17.2418 72.1132 17.6163 72.1132 17.8383C72.0854 18.6244 71.4288 19.244 70.6381 19.2208C70.6196 19.2208 70.5965 19.2208 70.578 19.2162C69.6995 19.2162 69.4174 18.6244 69.0752 17.8984C68.4371 16.465 66.9667 15.5818 65.3992 15.6928C62.0792 15.6928 60.7938 18.5457 60.7938 21.5837C60.7938 24.2794 61.6076 27.7243 65.3992 27.7243C68.2707 27.7243 69.0891 25.8747 69.5608 24.8713ZM75.9233 16.0673H74.2633C73.6529 16.1136 73.1166 15.6558 73.0703 15.0454C73.0657 14.9807 73.0657 14.9113 73.075 14.8466C73.001 14.2455 73.4264 13.6999 74.0275 13.6305C74.1061 13.6212 74.1847 13.6212 74.2633 13.6259H75.9603V9.95908C75.9603 9.53368 76.0851 8.61351 77.3706 8.61351C78.656 8.61351 78.8133 9.51981 78.8133 9.95908V13.6259H80.7553C81.3518 13.5704 81.8789 14.005 81.939 14.6015C81.9483 14.6801 81.9437 14.7634 81.9344 14.8466C81.9945 15.457 81.546 16.0026 80.931 16.0627C80.8709 16.0673 80.8108 16.0673 80.7553 16.0673H78.8133V24.0297C78.8133 25.9117 78.841 26.1475 78.9381 26.5036C79.1601 27.4098 79.7519 27.5671 80.5981 27.6318C81.3518 27.6642 82.1333 27.7243 82.1333 28.8248C82.1333 29.9207 81.1299 30.0547 80.2837 30.0547C75.9279 30.0547 75.9279 27.7012 75.9279 25.2643V16.0673H75.9233ZM97.6697 28.6629C97.7067 29.1716 97.4339 29.6525 96.9807 29.8837C96.5183 30.0732 96.0005 30.0732 95.5381 29.8837C94.8815 29.5415 94.8815 29.0375 94.8815 27.7659C93.5359 29.5507 92.1857 30.1472 89.8969 30.1472C89.1478 30.1472 87.1364 30.0825 85.7307 28.552C84.3851 27.0492 84.3851 25.0424 84.3851 23.5674V14.879C84.4175 14.0744 85.0972 13.4502 85.9018 13.4872C86.6462 13.5195 87.2473 14.1068 87.2936 14.8512V22.6472C87.2936 24.765 87.3861 25.6111 87.793 26.3741C88.5143 27.6919 89.9893 27.6919 90.3592 27.6919C92.3938 27.7659 94.1832 26.3648 94.5948 24.3719C94.752 23.5026 94.8075 22.6194 94.752 21.7409V14.879C94.7936 14.0744 95.4826 13.4594 96.2871 13.501C97.0316 13.5426 97.6235 14.1345 97.6651 14.879L97.6697 28.6629ZM112.494 28.7785C112.466 29.1207 112.402 30.0501 111.222 30.0501C110.723 30.0779 110.256 29.8097 110.029 29.3612C109.937 29.1115 109.905 28.982 109.905 27.8584C108.684 29.3843 106.811 30.2443 104.86 30.175C101.6 30.175 99.5979 28.1728 99.5979 25.195C99.5979 21.4681 102.668 20.8716 104.361 20.534L107.024 19.9699C108.087 19.748 108.652 19.6278 108.934 19.5445C109.59 19.3596 109.812 19.1191 109.812 18.3238C109.812 15.6604 107.116 15.6604 106.552 15.6604C103.829 15.6604 103.357 17.006 103.075 17.8568C102.983 18.2822 102.825 18.8602 101.757 18.8602C100.597 18.8602 100.287 18.2036 100.287 17.6395C100.356 16.9875 100.583 16.3679 100.943 15.8222C102.215 13.9126 104.388 13.3484 106.548 13.3484C108.365 13.3484 110.247 13.6906 111.403 15.0454C112.466 16.317 112.466 17.8984 112.466 19.4289L112.494 28.7785ZM106.085 22.4252C105.544 22.527 105.008 22.6657 104.49 22.8506C103.38 23.1003 102.594 24.0945 102.608 25.232C102.608 26.9567 103.954 27.8306 105.521 27.8306C106.862 27.8353 108.134 27.2203 108.966 26.1706C109.78 25.0424 109.812 23.5674 109.845 21.4727C109.165 21.7548 108.453 21.9536 107.727 22.0692L106.085 22.4252ZM118.514 28.6352C118.514 29.4305 117.867 30.0732 117.072 30.0732C116.276 30.0732 115.634 29.4305 115.634 28.6352V8.92794C115.597 8.20198 116.152 7.587 116.878 7.54538C116.942 7.54076 117.012 7.54538 117.076 7.55001C117.788 7.46678 118.431 7.98003 118.51 8.69212C118.519 8.77073 118.519 8.84934 118.514 8.92794V28.6352Z" fill="#080808" fill-opacity="0.9"/>
</svg>
