<svg width="108" height="36" viewBox="0 0 108 36" fill="none" xmlns="http://www.w3.org/2000/svg">
<path d="M46.2168 19.0628C46.2168 24.1775 42.2156 27.9464 37.3052 27.9464C32.3948 27.9464 28.3936 24.1775 28.3936 19.0628C28.3936 13.9121 32.3948 10.1792 37.3052 10.1792C42.2156 10.1792 46.2168 13.9121 46.2168 19.0628ZM42.3157 19.0628C42.3157 15.8666 39.9967 13.6798 37.3052 13.6798C34.6137 13.6798 32.2946 15.8666 32.2946 19.0628C32.2946 22.2269 34.6137 24.4458 37.3052 24.4458C39.9967 24.4458 42.3157 22.2229 42.3157 19.0628Z" fill="#080808" fill-opacity="0.9"/>
<path d="M65.4423 19.0627C65.4423 24.1774 61.4411 27.9463 56.5307 27.9463C51.6202 27.9463 47.619 24.1774 47.619 19.0627C47.619 13.916 51.6202 10.1791 56.5307 10.1791C61.4411 10.1791 65.4423 13.912 65.4423 19.0627ZM61.5412 19.0627C61.5412 15.8665 59.2222 13.6796 56.5307 13.6796C53.8391 13.6796 51.5201 15.8665 51.5201 19.0627C51.5201 22.2268 53.8391 24.4457 56.5307 24.4457C59.2222 24.4457 61.5412 22.2228 61.5412 19.0627Z" fill="#080808" fill-opacity="0.9"/>
<path d="M83.8664 10.7158V26.6646C83.8664 33.2252 79.9974 35.9047 75.4234 35.9047C71.1178 35.9047 68.5264 33.0249 67.5491 30.6698L70.9455 29.256C71.5503 30.7019 73.0323 32.4081 75.4194 32.4081C78.3472 32.4081 80.1616 30.6017 80.1616 27.2013V25.9236H80.0254C79.1523 27.001 77.4701 27.9423 75.3473 27.9423C70.9055 27.9423 66.8362 24.0732 66.8362 19.0947C66.8362 14.0802 70.9055 10.1791 75.3473 10.1791C77.4661 10.1791 79.1483 11.1203 80.0254 12.1657H80.1616V10.7198H83.8664V10.7158ZM80.4379 19.0947C80.4379 15.9666 78.3512 13.6796 75.6958 13.6796C73.0042 13.6796 70.7493 15.9666 70.7493 19.0947C70.7493 22.1908 73.0042 24.4457 75.6958 24.4457C78.3512 24.4457 80.4379 22.1908 80.4379 19.0947Z" fill="#080808" fill-opacity="0.9"/>
<path d="M89.9749 1.36792V27.4019H86.1699V1.36792H89.9749Z" fill="#080808" fill-opacity="0.9"/>
<path d="M104.803 21.9871L107.831 24.0058C106.854 25.4517 104.499 27.9429 100.43 27.9429C95.3831 27.9429 91.6141 24.0418 91.6141 19.0593C91.6141 13.7764 95.4151 10.1757 99.9931 10.1757C104.603 10.1757 106.858 13.8445 107.595 15.8271L108 16.8364L96.124 21.7548C97.0332 23.5372 98.4471 24.4464 100.43 24.4464C102.416 24.4464 103.794 23.4691 104.803 21.9871ZM95.4832 18.791L103.422 15.4947C102.985 14.3852 101.671 13.6122 100.125 13.6122C98.1427 13.6122 95.3831 15.3625 95.4832 18.791Z" fill="#080808" fill-opacity="0.9"/>
<path d="M13.9912 16.7519V12.983H26.6918C26.816 13.6398 26.8801 14.4169 26.8801 15.258C26.8801 18.0856 26.1071 21.5822 23.6158 24.0735C21.1926 26.5968 18.0966 27.9425 13.9952 27.9425C6.39332 27.9425 0.000976562 21.7504 0.000976562 14.1485C0.000976562 6.54658 6.39332 0.354492 13.9952 0.354492C18.2007 0.354492 21.1967 2.00465 23.4476 4.15545L20.7881 6.81493C19.174 5.30095 16.9872 4.12341 13.9912 4.12341C8.44 4.12341 4.09833 8.59725 4.09833 14.1485C4.09833 19.6997 8.44 24.1736 13.9912 24.1736C17.5919 24.1736 19.6426 22.7277 20.9563 21.414C22.0217 20.3486 22.7226 18.8266 22.999 16.7479L13.9912 16.7519Z" fill="#080808" fill-opacity="0.9"/>
</svg>
