<svg width="98" height="29" viewBox="0 0 98 29" fill="none" xmlns="http://www.w3.org/2000/svg">
<path d="M0 20.5131V0.424574H3.61992V20.5129L0 20.5131ZM12.8862 5.93963C8.24495 5.93963 5.03312 9.41828 5.03312 13.3999C5.03312 17.8438 8.52718 20.9049 12.9222 20.9049C17.0933 20.9049 20.7128 17.9 20.7128 13.3904C20.7128 9.59815 17.7137 5.93963 12.8862 5.93963ZM12.8435 9.34379C15.2724 9.34379 17.0601 11.1868 17.0601 13.4127C17.0601 15.7728 15.0891 17.4944 12.909 17.4944C10.3332 17.4944 8.71209 15.5042 8.71209 13.4191C8.71209 11.1336 10.5423 9.34379 12.8435 9.34379ZM29.8079 5.93963C25.1667 5.93963 21.9549 9.41828 21.9549 13.3999C21.9549 17.8438 25.449 20.9049 29.844 20.9049C34.0151 20.9049 37.6346 17.9 37.6346 13.3904C37.6346 10.7348 36.4549 9.55636 36.4549 9.55636L37.4583 9.221V6.35704H32.3169C32.3169 6.35704 31.2024 5.93963 29.8079 5.93963ZM29.7653 9.34379C32.1942 9.34379 33.982 11.1868 33.982 13.4127C33.982 15.7728 32.0109 17.4944 29.8308 17.4944C27.255 17.4944 25.6338 15.5042 25.6338 13.4191C25.6338 11.1336 27.4641 9.34379 29.7653 9.34379ZM33.9564 21.4949C33.9564 23.855 31.9853 25.5894 29.8052 25.5894C27.2294 25.5894 25.6017 23.5801 25.6017 21.4949H21.9293C21.9293 25.9388 25.4234 29 29.8184 29C33.9895 29 37.609 26.0047 37.609 21.4949H33.9564ZM39.0845 20.5131V6.35704H42.7044V20.513L39.0845 20.5131ZM46.2195 20.5131V9.52787H44.2783V6.35704H46.2195V2.01008H49.8393V6.35704H51.833V9.52787H49.8394V20.513L46.2195 20.5131Z" fill="#080808" fill-opacity="0.9"/>
<path d="M40.8871 4.67338C42.211 4.67338 43.2842 3.62721 43.2842 2.33669C43.2842 1.04617 42.211 0 40.8871 0C39.5633 0 38.4901 1.04617 38.4901 2.33669C38.4901 3.62721 39.5633 4.67338 40.8871 4.67338Z" fill="#080808" fill-opacity="0.9"/>
<path d="M59.9713 5.93004C55.308 5.93004 52.3019 9.4105 52.3019 13.5278C52.3019 17.7825 55.318 20.9145 60.0467 20.9145C64.4576 20.9145 66.6275 18.2296 66.6275 18.2296L64.2076 15.8675C64.2076 15.8675 62.3805 17.7885 60.0926 17.7885C58.1853 17.7885 56.6604 16.7508 56.1284 14.8479H67.4077V13.8761C67.4077 9.999 65.1059 5.93004 59.9713 5.93004ZM59.8565 9.03699C61.524 9.03699 63.2294 9.90653 63.6107 11.984H56.03C56.3302 10.5237 57.6409 9.03699 59.8565 9.03699ZM76.4623 20.9164C71.7859 20.9164 68.5995 17.4443 68.5995 13.3506C68.5995 9.12591 72.2007 5.92735 76.4474 5.92735C80.5525 5.92735 82.6538 8.7525 82.6538 8.7525L80.1286 11.2029C80.1286 11.2029 78.6659 9.36058 76.4301 9.36058C73.9521 9.36058 72.2579 11.2083 72.2579 13.4048C72.2579 15.724 74.0602 17.5034 76.4022 17.5034C78.674 17.5034 80.1251 15.6639 80.1251 15.6639L82.6756 18.1131C82.6756 18.1131 80.5947 20.9164 76.4623 20.9164ZM83.9926 20.5232V0.373477H87.6124V7.77661C87.6124 7.77661 88.9985 5.92735 92.0136 5.92735C95.8041 5.92735 98 8.67418 98 12.1872V20.5232H94.3801V12.7205C94.3801 10.3604 92.8727 9.38115 91.2029 9.38115C89.3004 9.38115 87.6125 10.4367 87.6125 12.9031V20.5232H83.9926Z" fill="#080808" fill-opacity="0.9"/>
</svg>
