<svg width="140" height="31" viewBox="0 0 140 31" fill="none" xmlns="http://www.w3.org/2000/svg">
<path d="M86.8727 13.4135L79.3292 5.73261V5.67938C78.8703 5.23679 78.263 4.99567 77.6354 5.00684C77.0078 5.01802 76.4089 5.28063 75.965 5.73928C75.5212 6.19794 75.267 6.8168 75.2562 7.46534C75.2454 8.11388 75.4788 8.74142 75.9071 9.21561L75.9586 9.26123L83.3916 17.0485H86.9095V13.4135H86.8727Z" fill="#080808" fill-opacity="0.9"/>
<path d="M88.162 21.9766L95.6907 29.6574L95.7423 29.7107C96.1961 30.1786 96.8112 30.4411 97.4523 30.4404C98.0933 30.4396 98.7079 30.1758 99.1607 29.7069C99.6136 29.2379 99.8676 28.6023 99.8669 27.9399C99.8662 27.2774 99.6109 26.6424 99.1571 26.1744L99.1129 26.1288L91.6798 18.3415H88.162V21.9766Z" fill="#080808" fill-opacity="0.9"/>
<path d="M91.6577 17.0486L99.0908 9.2613L99.1423 9.21567C99.5706 8.74148 99.804 8.11394 99.7932 7.4654C99.7824 6.81686 99.5282 6.198 99.0844 5.73934C98.6405 5.28069 98.0416 5.01808 97.414 5.0069C96.7864 4.99573 96.1791 5.23685 95.7202 5.67944L95.676 5.73267L88.162 13.4135V17.0486H91.6577Z" fill="#080808" fill-opacity="0.9"/>
<path d="M83.3565 18.3415L75.9308 26.1212L75.8793 26.1668C75.4255 26.6398 75.1721 27.2796 75.1748 27.9457C75.1762 28.2755 75.2404 28.6017 75.3638 28.9059C75.4872 29.21 75.6674 29.486 75.894 29.7182C76.1206 29.9504 76.3893 30.1342 76.6847 30.2591C76.98 30.384 77.2963 30.4476 77.6155 30.4462C78.26 30.4433 78.8771 30.176 79.3309 29.703L79.375 29.6498L86.9111 21.9766V18.3339H83.3859L83.3565 18.3415Z" fill="#080808" fill-opacity="0.9"/>
<path d="M20.5198 26.6535L19.6293 13.482C19.5263 11.961 19.4601 10.6834 19.4601 9.3678C19.1804 10.7899 18.9743 11.6492 18.5622 13.1702L14.7868 26.6535H10.7097L7.30957 13.7254C7.00047 12.5162 6.57362 10.7823 6.34548 9.3602C6.34548 10.8203 6.27925 12.2728 6.17621 13.7938L5.35195 26.6535H0.583008L2.79085 2.00636H8.93602L12.0564 14.3489C12.3977 15.6334 12.6729 16.9356 12.8807 18.2502C13.1084 16.8995 13.4032 15.5619 13.7638 14.2425L16.9873 2.00636H23.0957L25.2225 26.6535H20.5198ZM41.406 27.5737C40.3631 27.1543 39.4905 26.3787 38.9333 25.3759C38.6045 25.7231 38.2502 26.0435 37.8735 26.3341C36.8206 27.0341 35.5846 27.3819 34.3336 27.3303C30.4257 27.3303 28.2988 25.2694 28.2988 21.6572C28.2988 17.3985 31.1469 15.4136 36.7401 15.4136H37.7705V14.6531C37.7705 12.6303 37.3878 11.9534 35.7098 11.9534C34.2379 11.9534 32.5158 12.7139 30.6318 14.0143L28.6741 10.6074C29.5752 10.0092 30.5288 9.49998 31.5223 9.08642C33.035 8.38963 34.6718 8.027 36.328 8.02175C39.2718 8.02175 41.303 9.15487 41.9874 11.1777C42.2992 12.2332 42.4043 13.3423 42.2965 14.4402L42.1935 20.524C42.1935 22.5089 42.2965 23.3606 43.842 24.5698L41.406 27.5737ZM37.4908 18.7065C34.3041 18.7065 33.2002 19.3149 33.2002 21.4746C33.1707 21.7706 33.2007 22.0696 33.2883 22.353C33.3759 22.6363 33.5191 22.898 33.7092 23.1214C33.8992 23.3449 34.1318 23.5254 34.3925 23.6516C34.6532 23.7779 34.9363 23.8471 35.2241 23.8549C35.6872 23.8318 36.1405 23.7089 36.5549 23.4942C36.9693 23.2794 37.3358 22.9775 37.6306 22.6078L37.6969 18.7065H37.4908ZM52.0994 27.0794C49.7664 27.0794 47.9118 26.0147 47.3672 24.4177C47.0689 23.5191 46.9635 22.5641 47.0581 21.6191V11.7329H45.3066V8.50085H47.0581C47.0211 7.06632 47.0776 5.63083 47.2274 4.20415L51.8933 3.00259C51.7136 4.82949 51.6227 6.66455 51.621 8.50085H55.735L54.5722 11.7633H51.6284V20.8891C51.6284 23.1705 52.0405 23.7941 53.6154 23.7941C54.1778 23.756 54.7325 23.6383 55.2639 23.4443L55.8453 26.2809C54.6602 26.8007 53.3869 27.0721 52.0994 27.0794ZM66.4724 12.6455C66.0655 12.4039 65.6021 12.2829 65.133 12.2956C64.5843 12.3164 64.047 12.4637 63.5605 12.7269C63.0741 12.9901 62.6508 13.3624 62.3217 13.8166V26.6535H57.722V14.5239C57.7879 12.7248 57.5692 10.9267 57.0744 9.2005L61.1883 8.06738C61.6279 8.85706 61.8801 9.74315 61.9243 10.653C62.9178 9.26894 64.3308 8.06738 66.0456 8.06738C66.6396 8.04585 67.2293 8.17923 67.7603 8.45523L66.4724 12.6455ZM71.3076 6.43996C70.9355 6.43796 70.5675 6.36026 70.2244 6.21128C69.8814 6.06229 69.5701 5.84495 69.3084 5.57167C69.0467 5.29838 68.8396 4.97449 68.699 4.6185C68.5584 4.26251 68.487 3.88139 68.4889 3.4969C68.4967 2.71225 68.8043 1.96258 69.3447 1.41129C69.8851 0.860004 70.6145 0.551795 71.3738 0.553843C71.7455 0.554816 72.1133 0.631939 72.456 0.780752C72.7987 0.929565 73.1093 1.14711 73.3701 1.42081C73.6309 1.6945 73.8365 2.01892 73.9752 2.37527C74.1138 2.73163 74.1827 3.11286 74.1778 3.4969C74.1788 3.8856 74.1051 4.27064 73.9609 4.62966C73.8168 4.98868 73.605 5.31455 73.338 5.58834C73.071 5.86213 72.754 6.0784 72.4055 6.22459C72.0569 6.37078 71.6838 6.44398 71.3076 6.43996ZM69.0262 26.6535V8.81265L73.6258 8.05217V26.6535H69.0262ZM103.689 6.43996C103.318 6.43797 102.95 6.36021 102.607 6.21113C102.265 6.06206 101.954 5.8446 101.693 5.57121C101.432 5.29782 101.225 4.97387 101.085 4.61792C100.946 4.26198 100.875 3.88103 100.878 3.4969C100.884 2.71294 101.19 1.96326 101.729 1.41176C102.268 0.860262 102.997 0.55181 103.756 0.553843C104.127 0.554816 104.495 0.631939 104.838 0.780752C105.18 0.929565 105.491 1.14711 105.752 1.42081C106.013 1.6945 106.218 2.01892 106.357 2.37527C106.496 2.73163 106.564 3.11286 106.56 3.4969C106.561 3.8856 106.487 4.27064 106.343 4.62966C106.198 4.98868 105.987 5.31455 105.72 5.58834C105.453 5.86213 105.136 6.0784 104.787 6.22459C104.439 6.37078 104.065 6.44398 103.689 6.43996ZM101.408 26.6535V8.81265L106 8.05217V26.6535H101.408ZM121.499 27.5737C120.456 27.1543 119.584 26.3787 119.026 25.3759C118.699 25.7249 118.345 26.0454 117.967 26.3341C116.914 27.0341 115.678 27.3819 114.427 27.3303C110.519 27.3303 108.392 25.2694 108.392 21.6572C108.392 17.3985 111.24 15.4136 116.833 15.4136H117.864V14.6531C117.864 12.6303 117.481 11.9534 115.803 11.9534C114.331 11.9534 112.609 12.7139 110.725 14.0143L108.767 10.6606C109.668 10.0624 110.622 9.55322 111.615 9.13966C113.128 8.44287 114.765 8.08023 116.421 8.07499C119.365 8.07499 121.396 9.2081 122.081 11.231C122.392 12.2864 122.498 13.3955 122.39 14.4934L122.287 20.5773C122.287 22.5621 122.39 23.4139 123.935 24.623L121.499 27.5737ZM117.599 18.7065C114.412 18.7065 113.316 19.3149 113.316 21.4746C113.285 21.7708 113.314 22.0702 113.401 22.3541C113.488 22.638 113.632 22.9001 113.822 23.1238C114.012 23.3476 114.245 23.5281 114.506 23.6539C114.768 23.7798 115.051 23.8482 115.339 23.8549C115.799 23.8287 116.248 23.7043 116.658 23.4897C117.069 23.275 117.431 22.9747 117.724 22.6078L117.79 18.7065H117.599ZM135.468 26.6535V14.8433C135.468 12.79 135.122 12.1816 133.922 12.1816C132.708 12.3345 131.581 12.9114 130.728 13.8166V26.6535H126.128V13.482C126.151 12.0369 125.942 10.598 125.51 9.22331L129.595 8.02175C130.001 8.71044 130.227 9.4968 130.25 10.3032C130.898 9.8134 131.574 9.36393 132.274 8.95714C133.257 8.46111 134.336 8.20115 135.431 8.19666C137.388 8.19666 139.111 9.25373 139.655 10.8203C139.915 11.6548 140.029 12.5302 139.994 13.4059V26.6535H135.468Z" fill="#080808" fill-opacity="0.9"/>
</svg>
