<svg width="23" height="24" viewBox="0 0 23 24" fill="none" xmlns="http://www.w3.org/2000/svg">
<path d="M20.0776 0.993896H10.327C9.26009 0.993896 8.39209 1.8619 8.39209 2.92874V10.4249L9.33791 9.63522V4.56203H21.0666V21.0708C21.0666 21.6161 20.6229 22.0598 20.0776 22.0598H10.327C9.78158 22.0598 9.33791 21.6161 9.33791 21.0708V21.0149H8.39209V21.0708C8.39209 22.1377 9.26005 23.0056 10.327 23.0056H20.0776C21.1445 23.0056 22.0125 22.1377 22.0125 21.0708V2.92874C22.0125 1.86186 21.1445 0.993896 20.0776 0.993896ZM9.33791 3.61622V2.92874C9.33791 2.38339 9.78158 1.93971 10.327 1.93971H20.0776C20.623 1.93971 21.0666 2.38339 21.0666 2.92874V3.61622H9.33791Z" fill="#080808" fill-opacity="0.9"/>
<path fill-rule="evenodd" clip-rule="evenodd" d="M8.25446 10.7192V2.92886C8.25446 1.78604 9.18405 0.856445 10.3269 0.856445H20.0776C21.2204 0.856445 22.15 1.786 22.15 2.92886V21.0709C22.15 22.2138 21.2204 23.1433 20.0776 23.1433H10.3269C9.18401 23.1433 8.25446 22.2138 8.25446 21.0709V20.8774H9.47543V21.0709C9.47543 21.5403 9.8575 21.9224 10.3269 21.9224H20.0775C20.5469 21.9224 20.929 21.5403 20.929 21.0709V4.69974H9.47543V9.69971L8.25446 10.7192ZM8.39203 2.92886C8.39203 1.86202 9.26003 0.994023 10.3269 0.994023H20.0776C21.1444 0.994023 22.0124 1.86198 22.0124 2.92886V21.0709C22.0124 22.1378 21.1444 23.0058 20.0776 23.0058H10.3269C9.28734 23.0058 8.43666 22.1817 8.39373 21.1526C8.3926 21.1255 8.39203 21.0983 8.39203 21.0709V21.015H9.33785V21.0709C9.33785 21.6163 9.78152 22.0599 10.3269 22.0599H20.0775C20.6229 22.0599 21.0665 21.6163 21.0665 21.0709V4.56216H9.33785V9.63535L8.39203 10.4251V2.92886ZM9.47543 2.92886V3.47877H20.929V2.92886C20.929 2.4595 20.5469 2.07742 20.0776 2.07742H10.3269C9.8575 2.07742 9.47543 2.4595 9.47543 2.92886ZM9.33785 3.61634H21.0666V2.92886C21.0666 2.38351 20.6229 1.93984 20.0776 1.93984H10.3269C9.78152 1.93984 9.33785 2.38351 9.33785 2.92886V3.61634Z" fill="#080808" fill-opacity="0.9"/>
<path d="M16.3008 20.3836C16.562 20.3836 16.7737 20.1718 16.7737 19.9107C16.7737 19.6495 16.562 19.4377 16.3008 19.4377H14.1231C13.8619 19.4377 13.6501 19.6495 13.6501 19.9107C13.6501 20.1718 13.8619 20.3836 14.1231 20.3836H16.3008Z" fill="#080808" fill-opacity="0.9"/>
<path d="M18.5284 20.1733C18.7036 20.451 19.1391 20.4503 19.3147 20.1733C19.5485 19.8289 19.2363 19.3621 18.8289 19.4472C18.5055 19.5043 18.3396 19.9043 18.5284 20.1733Z" fill="#080808" fill-opacity="0.9"/>
<path d="M13.6022 8.76622C13.5955 8.28063 13.3974 7.829 13.0442 7.49461C12.3496 6.8368 11.225 6.86092 10.5375 7.54844L4.83441 13.2515L4.83458 11.2586C4.83415 10.2753 4.0339 9.47498 3.05042 9.47455C2.57412 9.47455 2.1261 9.66028 1.78888 9.99755C1.45182 10.3346 1.26623 10.7825 1.26623 11.2587V11.4851C1.26623 12.8458 0.973755 14.2091 0.397022 15.537C0.0179641 16.4097 -0.0924385 17.3676 0.0777655 18.3071C0.252097 19.2694 0.71099 20.1448 1.4047 20.8385L2.16806 21.6018C3.10257 22.5363 4.33011 23.0035 5.55766 23.0035C6.7852 23.0035 8.01274 22.5362 8.94725 21.6018L12.4026 18.1464C13.0901 17.4589 13.1142 16.3344 12.4564 15.6397C12.122 15.2865 11.6704 15.0884 11.1847 15.0817C11.1523 15.0812 11.12 15.0817 11.0878 15.0829C11.107 14.6026 10.9335 14.1158 10.5676 13.7499C10.3574 13.5398 10.1041 13.3885 9.82759 13.3044L13.0797 10.0522C13.4233 9.70873 13.6088 9.25198 13.6022 8.76622ZM12.411 9.38345L8.04451 13.7499L6.48688 15.3075C6.30218 15.4922 6.30218 15.7917 6.48688 15.9764C6.57922 16.0687 6.70024 16.1149 6.82127 16.1149C6.94233 16.1149 7.06331 16.0687 7.15566 15.9764C7.15566 15.9764 8.71144 14.4206 8.71329 14.4187C9.03491 14.0971 9.57815 14.098 9.89874 14.4187C10.2256 14.7455 10.2256 15.2773 9.89874 15.6041L8.34111 17.1618C8.15642 17.3465 8.15642 17.6459 8.34111 17.8306C8.43345 17.923 8.55448 17.9691 8.6755 17.9691C8.79652 17.9691 8.91754 17.923 9.00989 17.8306C9.00989 17.8306 10.5648 16.2757 10.5675 16.273C10.8908 15.9497 11.4571 15.9601 11.7696 16.29C12.0785 16.6162 12.0624 17.149 11.7337 17.4777L8.27838 20.933C6.77815 22.4332 4.33708 22.4332 2.83684 20.933L2.07348 20.1697C0.947917 19.0442 0.630423 17.3736 1.26451 15.9138C1.89322 14.4662 2.212 12.9762 2.212 11.4851C2.212 11.4851 2.212 11.2591 2.212 11.2587C2.212 10.8016 2.59347 10.4204 3.05017 10.4204C3.51237 10.4206 3.88855 10.7968 3.88872 11.2587L3.88842 14.3933C3.88842 14.5846 4.00364 14.757 4.18033 14.8303C4.35698 14.9035 4.56042 14.863 4.69572 14.7278L11.2062 8.21726C11.5348 7.88863 12.0677 7.87251 12.3938 8.18145C12.7327 8.50221 12.7407 9.05379 12.411 9.38345Z" fill="#FFB646"/>
</svg>
